<svg xmlns="http://www.w3.org/2000/svg" width="1500" height="1682" viewBox="0 0 1500 1682"><rect width="100%" height="100%" fill="#FAF9F5"/><style>text{font-family:"Noto Sans CJK SC","Microsoft YaHei",Arial,sans-serif;fill:#17231F}.title{font-size:30px;font-weight:700}.sub{font-size:15px;fill:#52605A}.head{font-size:16px;font-weight:700}.name{font-size:16px;font-weight:700}.meta{font-size:12px;fill:#59655F}.num{font-size:24px;font-weight:700}.note{font-size:14px;fill:#394740}</style><text x="55" y="55" class="title">R4 组织／制度节点 × 议题框架（线上安全事实）</text><text x="55" y="85" class="sub">单元格 = 该实体的 QA-safe 框架观察数；不表示实体之间的共现、合作或稳定联盟</text><text x="576.0" y="135" text-anchor="middle" class="head"><tspan x="576.0" dy="0">地下水</tspan><tspan x="576.0" dy="20">饮用水</tspan></text><text x="758.0" y="135" text-anchor="middle" class="head"><tspan x="758.0" dy="0">自治</tspan><tspan x="758.0" dy="20">公投</tspan></text><text x="940.0" y="135" text-anchor="middle" class="head"><tspan x="940.0" dy="0">前线</tspan><tspan x="940.0" dy="20">台湾</tspan><tspan x="940.0" dy="20">撤离</tspan></text><text x="1122.0" y="135" text-anchor="middle" class="head"><tspan x="1122.0" dy="0">健康</tspan><tspan x="1122.0" dy="20">生活安全</tspan></text><text x="1304.0" y="135" text-anchor="middle" class="head"><tspan x="1304.0" dy="0">环境—部署</tspan></text><rect x="45" y="174" width="1400" height="85" rx="10" fill="#E4E5E4" opacity="0.68"/><text x="65" y="203" class="name">「宮古島いのちの水を守ろう！ 6・11自衛隊配備を止める市民集会」実行委員会</text><text x="65" y="228" class="meta">PROV_R4_611_EXECUTIVE_COMMITTEE · provisional entity · Miyako</text><rect x="498" y="184" width="156" height="56" rx="9" fill="#17624F" stroke="#D2D6D3"/><text x="576.0" y="221" text-anchor="middle" class="num" style="fill:#FFFFFF">1</text><rect x="680" y="184" width="156" height="56" rx="9" fill="#FFFFFF" stroke="#D2D6D3"/><text x="758.0" y="221" text-anchor="middle" class="num" style="fill:#A5ADA9">0</text><rect x="862" y="184" width="156" height="56" rx="9" fill="#FFFFFF" stroke="#D2D6D3"/><text x="940.0" y="221" text-anchor="middle" class="num" style="fill:#A5ADA9">0</text><rect x="1044" y="184" width="156" height="56" rx="9" fill="#FFFFFF" stroke="#D2D6D3"/><text x="1122.0" y="221" text-anchor="middle" class="num" style="fill:#A5ADA9">0</text><rect x="1226" y="184" width="156" height="56" rx="9" fill="#FFFFFF" stroke="#D2D6D3"/><text x="1304.0" y="221" text-anchor="middle" class="num" style="fill:#A5ADA9">0</text><rect x="45" y="267" width="1400" height="85" rx="10" fill="#F2E2C8" opacity="0.68"/><text x="65" y="296" class="name">宮古島市</text><text x="65" y="321" class="meta">GOV_MIYAKO_CITY · external institution · Miyako</text><rect x="498" y="277" width="156" height="56" rx="9" fill="#17624F" stroke="#D2D6D3"/><text x="576.0" y="314" text-anchor="middle" class="num" style="fill:#FFFFFF">1</text><rect x="680" y="277" width="156" height="56" rx="9" fill="#FFFFFF" stroke="#D2D6D3"/><text x="758.0" y="314" text-anchor="middle" class="num" style="fill:#A5ADA9">0</text><rect x="862" y="277" width="156" height="56" rx="9" fill="#17624F" stroke="#D2D6D3"/><text x="940.0" y="314" text-anchor="middle" class="num" style="fill:#FFFFFF">1</text><rect x="1044" y="277" width="156" height="56" rx="9" fill="#FFFFFF" stroke="#D2D6D3"/><text x="1122.0" y="314" text-anchor="middle" class="num" style="fill:#A5ADA9">0</text><rect x="1226" y="277" width="156" height="56" rx="9" fill="#FFFFFF" stroke="#D2D6D3"/><text x="1304.0" y="314" text-anchor="middle" class="num" style="fill:#A5ADA9">0</text><rect x="45" y="360" width="1400" height="85" rx="10" fill="#E4E5E4" opacity="0.68"/><text x="65" y="389" class="name">宮古島市議会議員 久貝美奈子</text><text x="65" y="414" class="meta">PROV_COUNCILOR_KUGAI_MINAKO · provisional entity · Miyako</text><rect x="498" y="370" width="156" height="56" rx="9" fill="#FFFFFF" stroke="#D2D6D3"/><text x="576.0" y="407" text-anchor="middle" class="num" style="fill:#A5ADA9">0</text><rect x="680" y="370" width="156" height="56" rx="9" fill="#17624F" stroke="#D2D6D3"/><text x="758.0" y="407" text-anchor="middle" class="num" style="fill:#FFFFFF">1</text><rect x="862" y="370" width="156" height="56" rx="9" fill="#17624F" stroke="#D2D6D3"/><text x="940.0" y="407" text-anchor="middle" class="num" style="fill:#FFFFFF">1</text><rect x="1044" y="370" width="156" height="56" rx="9" fill="#FFFFFF" stroke="#D2D6D3"/><text x="1122.0" y="407" text-anchor="middle" class="num" style="fill:#A5ADA9">0</text><rect x="1226" y="370" width="156" height="56" rx="9" fill="#FFFFFF" stroke="#D2D6D3"/><text x="1304.0" y="407" text-anchor="middle" class="num" style="fill:#A5ADA9">0</text><rect x="45" y="453" width="1400" height="85" rx="10" fill="#F2E2C8" opacity="0.68"/><text x="65" y="482" class="name">宮古島市行政（総務部長 上地俊暢答弁）</text><text x="65" y="507" class="meta">GOV_MIYAKO_CITY_ADMIN · external institution · Miyako</text><rect x="498" y="463" width="156" height="56" rx="9" fill="#FFFFFF" stroke="#D2D6D3"/><text x="576.0" y="500" text-anchor="middle" class="num" style="fill:#A5ADA9">0</text><rect x="680" y="463" width="156" height="56" rx="9" fill="#FFFFFF" stroke="#D2D6D3"/><text x="758.0" y="500" text-anchor="middle" class="num" style="fill:#A5ADA9">0</text><rect x="862" y="463" width="156" height="56" rx="9" fill="#17624F" stroke="#D2D6D3"/><text x="940.0" y="500" text-anchor="middle" class="num" style="fill:#FFFFFF">1</text><rect x="1044" y="463" width="156" height="56" rx="9" fill="#FFFFFF" stroke="#D2D6D3"/><text x="1122.0" y="500" text-anchor="middle" class="num" style="fill:#A5ADA9">0</text><rect x="1226" y="463" width="156" height="56" rx="9" fill="#FFFFFF" stroke="#D2D6D3"/><text x="1304.0" y="500" text-anchor="middle" class="num" style="fill:#A5ADA9">0</text><rect x="45" y="546" width="1400" height="85" rx="10" fill="#F2E2C8" opacity="0.68"/><text x="65" y="575" class="name">石垣市</text><text x="65" y="600" class="meta">GOV_ISHIGAKI_CITY · external institution · Ishigaki</text><rect x="498" y="556" width="156" height="56" rx="9" fill="#FFFFFF" stroke="#D2D6D3"/><text x="576.0" y="593" text-anchor="middle" class="num" style="fill:#A5ADA9">0</text><rect x="680" y="556" width="156" height="56" rx="9" fill="#17624F" stroke="#D2D6D3"/><text x="758.0" y="593" text-anchor="middle" class="num" style="fill:#FFFFFF">1</text><rect x="862" y="556" width="156" height="56" rx="9" fill="#17624F" stroke="#D2D6D3"/><text x="940.0" y="593" text-anchor="middle" class="num" style="fill:#FFFFFF">1</text><rect x="1044" y="556" width="156" height="56" rx="9" fill="#FFFFFF" stroke="#D2D6D3"/><text x="1122.0" y="593" text-anchor="middle" class="num" style="fill:#A5ADA9">0</text><rect x="1226" y="556" width="156" height="56" rx="9" fill="#FFFFFF" stroke="#D2D6D3"/><text x="1304.0" y="593" text-anchor="middle" class="num" style="fill:#A5ADA9">0</text><rect x="45" y="639" width="1400" height="85" rx="10" fill="#F2E2C8" opacity="0.68"/><text x="65" y="668" class="name">石垣市議会</text><text x="65" y="693" class="meta">LEG_ISHIGAKI_COUNCIL · external institution · Ishigaki</text><rect x="498" y="649" width="156" height="56" rx="9" fill="#FFFFFF" stroke="#D2D6D3"/><text x="576.0" y="686" text-anchor="middle" class="num" style="fill:#A5ADA9">0</text><rect x="680" y="649" width="156" height="56" rx="9" fill="#17624F" stroke="#D2D6D3"/><text x="758.0" y="686" text-anchor="middle" class="num" style="fill:#FFFFFF">1</text><rect x="862" y="649" width="156" height="56" rx="9" fill="#FFFFFF" stroke="#D2D6D3"/><text x="940.0" y="686" text-anchor="middle" class="num" style="fill:#A5ADA9">0</text><rect x="1044" y="649" width="156" height="56" rx="9" fill="#17624F" stroke="#D2D6D3"/><text x="1122.0" y="686" text-anchor="middle" class="num" style="fill:#FFFFFF">1</text><rect x="1226" y="649" width="156" height="56" rx="9" fill="#FFFFFF" stroke="#D2D6D3"/><text x="1304.0" y="686" text-anchor="middle" class="num" style="fill:#A5ADA9">0</text><rect x="45" y="732" width="1400" height="85" rx="10" fill="#E4E5E4" opacity="0.68"/><text x="65" y="761" class="name">2024-08-02 伊原間意见交换会匿名意见主题块</text><text x="65" y="786" class="meta">EVENT_R4S015_ANONYMOUS_COMMENT_UNITS · provisional entity · Ishigaki</text><rect x="498" y="742" width="156" height="56" rx="9" fill="#FFFFFF" stroke="#D2D6D3"/><text x="576.0" y="779" text-anchor="middle" class="num" style="fill:#A5ADA9">0</text><rect x="680" y="742" width="156" height="56" rx="9" fill="#17624F" stroke="#D2D6D3"/><text x="758.0" y="779" text-anchor="middle" class="num" style="fill:#FFFFFF">1</text><rect x="862" y="742" width="156" height="56" rx="9" fill="#17624F" stroke="#D2D6D3"/><text x="940.0" y="779" text-anchor="middle" class="num" style="fill:#FFFFFF">1</text><rect x="1044" y="742" width="156" height="56" rx="9" fill="#FFFFFF" stroke="#D2D6D3"/><text x="1122.0" y="779" text-anchor="middle" class="num" style="fill:#A5ADA9">0</text><rect x="1226" y="742" width="156" height="56" rx="9" fill="#FFFFFF" stroke="#D2D6D3"/><text x="1304.0" y="779" text-anchor="middle" class="num" style="fill:#A5ADA9">0</text><rect x="45" y="825" width="1400" height="85" rx="10" fill="#DCEBE4" opacity="0.68"/><text x="65" y="854" class="name">住民投票を成功させるための実行委員会</text><text x="65" y="879" class="meta">A014 · registry actor · Yonaguni</text><rect x="498" y="835" width="156" height="56" rx="9" fill="#FFFFFF" stroke="#D2D6D3"/><text x="576.0" y="872" text-anchor="middle" class="num" style="fill:#A5ADA9">0</text><rect x="680" y="835" width="156" height="56" rx="9" fill="#17624F" stroke="#D2D6D3"/><text x="758.0" y="872" text-anchor="middle" class="num" style="fill:#FFFFFF">1</text><rect x="862" y="835" width="156" height="56" rx="9" fill="#FFFFFF" stroke="#D2D6D3"/><text x="940.0" y="872" text-anchor="middle" class="num" style="fill:#A5ADA9">0</text><rect x="1044" y="835" width="156" height="56" rx="9" fill="#FFFFFF" stroke="#D2D6D3"/><text x="1122.0" y="872" text-anchor="middle" class="num" style="fill:#A5ADA9">0</text><rect x="1226" y="835" width="156" height="56" rx="9" fill="#FFFFFF" stroke="#D2D6D3"/><text x="1304.0" y="872" text-anchor="middle" class="num" style="fill:#A5ADA9">0</text><rect x="45" y="918" width="1400" height="85" rx="10" fill="#DCEBE4" opacity="0.68"/><text x="65" y="947" class="name">与那国島の明るい未来を願うイソバの会</text><text x="65" y="972" class="meta">A016 · registry actor · Yonaguni</text><rect x="498" y="928" width="156" height="56" rx="9" fill="#FFFFFF" stroke="#D2D6D3"/><text x="576.0" y="965" text-anchor="middle" class="num" style="fill:#A5ADA9">0</text><rect x="680" y="928" width="156" height="56" rx="9" fill="#FFFFFF" stroke="#D2D6D3"/><text x="758.0" y="965" text-anchor="middle" class="num" style="fill:#A5ADA9">0</text><rect x="862" y="928" width="156" height="56" rx="9" fill="#17624F" stroke="#D2D6D3"/><text x="940.0" y="965" text-anchor="middle" class="num" style="fill:#FFFFFF">1</text><rect x="1044" y="928" width="156" height="56" rx="9" fill="#FFFFFF" stroke="#D2D6D3"/><text x="1122.0" y="965" text-anchor="middle" class="num" style="fill:#A5ADA9">0</text><rect x="1226" y="928" width="156" height="56" rx="9" fill="#FFFFFF" stroke="#D2D6D3"/><text x="1304.0" y="965" text-anchor="middle" class="num" style="fill:#A5ADA9">0</text><rect x="45" y="1011" width="1400" height="85" rx="10" fill="#F2E2C8" opacity="0.68"/><text x="65" y="1040" class="name">与那国町</text><text x="65" y="1065" class="meta">GOV_YONAGUNI_TOWN · external institution · Yonaguni</text><rect x="498" y="1021" width="156" height="56" rx="9" fill="#FFFFFF" stroke="#D2D6D3"/><text x="576.0" y="1058" text-anchor="middle" class="num" style="fill:#A5ADA9">0</text><rect x="680" y="1021" width="156" height="56" rx="9" fill="#FFFFFF" stroke="#D2D6D3"/><text x="758.0" y="1058" text-anchor="middle" class="num" style="fill:#A5ADA9">0</text><rect x="862" y="1021" width="156" height="56" rx="9" fill="#17624F" stroke="#D2D6D3"/><text x="940.0" y="1058" text-anchor="middle" class="num" style="fill:#FFFFFF">1</text><rect x="1044" y="1021" width="156" height="56" rx="9" fill="#FFFFFF" stroke="#D2D6D3"/><text x="1122.0" y="1058" text-anchor="middle" class="num" style="fill:#A5ADA9">0</text><rect x="1226" y="1021" width="156" height="56" rx="9" fill="#FFFFFF" stroke="#D2D6D3"/><text x="1304.0" y="1058" text-anchor="middle" class="num" style="fill:#A5ADA9">0</text><rect x="45" y="1104" width="1400" height="85" rx="10" fill="#F2E2C8" opacity="0.68"/><text x="65" y="1133" class="name">防衛省・陸上自衛隊</text><text x="65" y="1158" class="meta">MOD_JAPAN · external institution · Yonaguni</text><rect x="498" y="1114" width="156" height="56" rx="9" fill="#FFFFFF" stroke="#D2D6D3"/><text x="576.0" y="1151" text-anchor="middle" class="num" style="fill:#A5ADA9">0</text><rect x="680" y="1114" width="156" height="56" rx="9" fill="#FFFFFF" stroke="#D2D6D3"/><text x="758.0" y="1151" text-anchor="middle" class="num" style="fill:#A5ADA9">0</text><rect x="862" y="1114" width="156" height="56" rx="9" fill="#17624F" stroke="#D2D6D3"/><text x="940.0" y="1151" text-anchor="middle" class="num" style="fill:#FFFFFF">1</text><rect x="1044" y="1114" width="156" height="56" rx="9" fill="#FFFFFF" stroke="#D2D6D3"/><text x="1122.0" y="1151" text-anchor="middle" class="num" style="fill:#A5ADA9">0</text><rect x="1226" y="1114" width="156" height="56" rx="9" fill="#FFFFFF" stroke="#D2D6D3"/><text x="1304.0" y="1151" text-anchor="middle" class="num" style="fill:#A5ADA9">0</text><rect x="45" y="1197" width="1400" height="85" rx="10" fill="#F2E2C8" opacity="0.68"/><text x="65" y="1226" class="name">防衛省</text><text x="65" y="1251" class="meta">MOD_JAPAN · external institution · Yonaguni</text><rect x="498" y="1207" width="156" height="56" rx="9" fill="#FFFFFF" stroke="#D2D6D3"/><text x="576.0" y="1244" text-anchor="middle" class="num" style="fill:#A5ADA9">0</text><rect x="680" y="1207" width="156" height="56" rx="9" fill="#FFFFFF" stroke="#D2D6D3"/><text x="758.0" y="1244" text-anchor="middle" class="num" style="fill:#A5ADA9">0</text><rect x="862" y="1207" width="156" height="56" rx="9" fill="#17624F" stroke="#D2D6D3"/><text x="940.0" y="1244" text-anchor="middle" class="num" style="fill:#FFFFFF">1</text><rect x="1044" y="1207" width="156" height="56" rx="9" fill="#FFFFFF" stroke="#D2D6D3"/><text x="1122.0" y="1244" text-anchor="middle" class="num" style="fill:#A5ADA9">0</text><rect x="1226" y="1207" width="156" height="56" rx="9" fill="#FFFFFF" stroke="#D2D6D3"/><text x="1304.0" y="1244" text-anchor="middle" class="num" style="fill:#A5ADA9">0</text><rect x="45" y="1290" width="1400" height="85" rx="10" fill="#F2E2C8" opacity="0.68"/><text x="65" y="1319" class="name">沖縄県</text><text x="65" y="1344" class="meta">GOV_OKINAWA_PREF · external institution · Sakishima</text><rect x="498" y="1300" width="156" height="56" rx="9" fill="#FFFFFF" stroke="#D2D6D3"/><text x="576.0" y="1337" text-anchor="middle" class="num" style="fill:#A5ADA9">0</text><rect x="680" y="1300" width="156" height="56" rx="9" fill="#FFFFFF" stroke="#D2D6D3"/><text x="758.0" y="1337" text-anchor="middle" class="num" style="fill:#A5ADA9">0</text><rect x="862" y="1300" width="156" height="56" rx="9" fill="#FFFFFF" stroke="#D2D6D3"/><text x="940.0" y="1337" text-anchor="middle" class="num" style="fill:#A5ADA9">0</text><rect x="1044" y="1300" width="156" height="56" rx="9" fill="#17624F" stroke="#D2D6D3"/><text x="1122.0" y="1337" text-anchor="middle" class="num" style="fill:#FFFFFF">1</text><rect x="1226" y="1300" width="156" height="56" rx="9" fill="#FFFFFF" stroke="#D2D6D3"/><text x="1304.0" y="1337" text-anchor="middle" class="num" style="fill:#A5ADA9">0</text><rect x="45" y="1383" width="1400" height="85" rx="10" fill="#F2E2C8" opacity="0.68"/><text x="65" y="1412" class="name">内閣官房・佐賀県</text><text x="65" y="1437" class="meta">GOV_CABINET_SAGA · external institution · Yonaguni</text><rect x="498" y="1393" width="156" height="56" rx="9" fill="#FFFFFF" stroke="#D2D6D3"/><text x="576.0" y="1430" text-anchor="middle" class="num" style="fill:#A5ADA9">0</text><rect x="680" y="1393" width="156" height="56" rx="9" fill="#FFFFFF" stroke="#D2D6D3"/><text x="758.0" y="1430" text-anchor="middle" class="num" style="fill:#A5ADA9">0</text><rect x="862" y="1393" width="156" height="56" rx="9" fill="#17624F" stroke="#D2D6D3"/><text x="940.0" y="1430" text-anchor="middle" class="num" style="fill:#FFFFFF">1</text><rect x="1044" y="1393" width="156" height="56" rx="9" fill="#FFFFFF" stroke="#D2D6D3"/><text x="1122.0" y="1430" text-anchor="middle" class="num" style="fill:#A5ADA9">0</text><rect x="1226" y="1393" width="156" height="56" rx="9" fill="#FFFFFF" stroke="#D2D6D3"/><text x="1304.0" y="1430" text-anchor="middle" class="num" style="fill:#A5ADA9">0</text><rect x="65" y="1497" width="25" height="25" rx="5" fill="#DCEBE4" stroke="#C5CAC7"/><text x="105" y="1516" class="note">registry actor：2 个；只表示有界事件／文件中的公开角色</text><rect x="65" y="1535" width="25" height="25" rx="5" fill="#F2E2C8" stroke="#C5CAC7"/><text x="105" y="1554" class="note">external institution：9 个；制度材料不等于居民同意</text><rect x="65" y="1573" width="25" height="25" rx="5" fill="#E4E5E4" stroke="#C5CAC7"/><text x="105" y="1592" class="note">bounded non-registry entity：3 个；含一次性委员会、具名个人或匿名事件话语，不进入 actor network</text><text x="65" y="1642" class="sub">事实构成：registry actor 2/19；external institution 12/19；bounded non-registry 5/19。这是证据归属边界，不是组织活跃度结论。</text></svg>